<svg width="218" height="58" viewBox="0 0 218 58" fill="none" xmlns="http://www.w3.org/2000/svg">
<g clip-path="url(#clip0_4218_10433)">
<mask id="mask0_4218_10433" style="mask-type:luminance" maskUnits="userSpaceOnUse" x="0" y="0" width="218" height="58">
<path d="M218 0H0V58H218V0Z" fill="white"/>
</mask>
<g mask="url(#mask0_4218_10433)">
<path d="M5.8777 27.7306C2.63641 27.7306 0 30.4072 0 33.7041C0 37.0125 2.63641 39.6775 5.8777 39.6775C9.13041 39.6775 11.7554 37.001 11.7554 33.7041C11.7554 33.3135 11.4358 31.4296 11.4473 31.039C11.4473 27.7421 14.0837 25.0655 17.325 25.0655C17.713 25.0655 19.5619 25.3757 19.9499 25.3757C23.2027 25.3757 25.8391 22.6991 25.8391 19.4022C25.8391 16.1053 23.2027 13.4288 19.9499 13.4288C16.6972 13.4288 14.0722 16.1053 14.0722 19.4022C14.0722 19.7928 14.3804 21.6767 14.3804 22.0673C14.3804 25.3642 11.744 28.0408 8.5027 28.0408C8.12607 28.0408 6.25433 27.7191 5.8777 27.7191" fill="#78BF26"/>
<path d="M32.3445 27.7306C29.0918 27.7306 26.4554 30.4072 26.4668 33.7041C26.4668 37.0125 29.1032 39.6775 32.3445 39.6775C35.5972 39.6775 38.2222 37.001 38.2222 33.7041C38.2222 33.3135 37.9026 31.4296 37.914 31.039C37.914 27.7421 40.5504 25.0655 43.8031 25.0655C44.1912 25.0655 46.0401 25.3757 46.4281 25.3757C49.6808 25.3757 52.3058 22.6991 52.3058 19.4022C52.3058 16.1053 49.6694 13.4288 46.4281 13.4288C43.1868 13.4288 40.5504 16.1053 40.5504 19.4022C40.5504 19.7928 40.8586 21.6767 40.8586 22.0673C40.8586 25.3642 38.2222 28.0408 34.9809 28.0408C34.6043 28.0408 32.7325 27.7191 32.3559 27.7191" fill="#0092E1"/>
<path d="M27.3113 47.1444C27.3113 50.4528 29.9477 53.1178 33.189 53.1178C36.4303 53.1178 39.0667 50.4413 39.0781 47.1444C39.0781 43.8475 36.4417 41.1709 33.189 41.1709C32.801 41.1709 30.9521 41.4926 30.564 41.4811C27.3113 41.4811 24.6863 38.8045 24.6863 35.5076C24.6863 35.1171 24.9945 33.2331 24.9945 32.8425C24.9945 29.5457 22.3581 26.8691 19.1168 26.8691C15.8641 26.8691 13.2277 29.5457 13.2277 32.8425C13.2277 36.1394 15.8641 38.816 19.1168 38.816C19.4934 38.816 21.3537 38.5058 21.7418 38.5058C24.9945 38.5058 27.6195 41.1824 27.6195 44.4793C27.6195 44.8699 27.3113 46.7538 27.3113 47.1444Z" fill="#78BF26"/>
<path d="M27.3113 20.2753C27.3113 23.5837 29.9477 26.2488 33.189 26.2488C36.4417 26.2488 39.0667 23.5837 39.0781 20.2753C39.0781 16.9784 36.4417 14.3018 33.189 14.3018C32.801 14.3018 30.9521 14.612 30.564 14.612C27.3113 14.612 24.6863 11.9354 24.6863 8.63854C24.6863 8.24797 24.9945 6.36403 24.9945 5.97346C24.9945 2.67657 22.3581 0 19.1168 0C15.8755 0 13.2277 2.67657 13.2277 5.97346C13.2277 9.27035 15.8641 11.9469 19.1168 11.9469C19.4934 11.9469 21.3537 11.6368 21.7418 11.6368C24.9945 11.6368 27.6195 14.3133 27.6195 17.6102C27.6195 18.0008 27.3113 19.8962 27.3113 20.2753Z" fill="#78BF26"/>
<path d="M59.7243 39.7809C59.7243 41.8946 59.0395 43.7096 57.6814 45.1915C56.3118 46.6849 54.714 47.4086 52.7966 47.4086C50.8792 47.4086 49.27 46.6849 47.9118 45.1915C46.5537 43.7096 45.8689 41.9061 45.8689 39.8039C45.8689 37.7017 46.5537 35.8982 47.9118 34.4393C49.2814 32.9574 50.8792 32.2452 52.7966 32.2452C54.714 32.2452 56.3232 32.9574 57.6814 34.4163C59.0281 35.8637 59.7243 37.6787 59.7243 39.7809ZM60.1466 29.8903C59.8727 30.1545 59.7243 30.4876 59.7243 30.8667V32.6817C58.9824 31.8431 58.1151 31.1539 57.1107 30.6025C55.764 29.8673 54.3031 29.4997 52.7852 29.4997C50.1488 29.4997 47.8662 30.5221 45.9944 32.5324C44.1341 34.5427 43.1868 36.9895 43.1868 39.8039C43.1868 42.6183 44.1227 45.0652 45.9716 47.0755C47.8319 49.0858 50.1145 50.1081 52.7852 50.1081C54.3373 50.1081 55.7982 49.7405 57.1335 49.0283C58.1265 48.4884 58.9939 47.7992 59.7357 46.9491V48.2472C59.7357 50.1885 59.0509 51.8657 57.7042 53.2212C56.3574 54.5767 54.7026 55.266 52.7852 55.266C51.7238 55.266 50.708 55.0362 49.7721 54.5882C49.5211 54.4389 49.2814 54.37 49.0531 54.37C48.7336 54.37 48.277 54.5193 47.9575 55.1856C47.7406 55.5761 47.5238 56.3343 48.5395 57.035C50.0004 57.6783 51.427 58 52.7852 58C55.4444 58 57.7384 57.035 59.6102 55.1396C61.4819 53.2442 62.4292 50.9237 62.4292 48.2472V30.8667C62.4292 30.4876 62.2922 30.166 62.0297 29.9018C61.5161 29.3733 60.7058 29.3733 60.158 29.9018" fill="#63666F"/>
<path d="M82.5503 37.9315H68.6379C69.0373 36.3347 69.8476 35.0022 71.046 33.9568C72.3585 32.8196 73.8993 32.2452 75.6226 32.2452C77.346 32.2452 78.8867 32.831 80.1992 33.9798C81.3976 35.0366 82.1851 36.3577 82.5503 37.9315ZM82.3791 32.2797C80.5188 30.4417 78.2248 29.4997 75.5541 29.4997C72.8835 29.4997 70.5438 30.5221 68.6264 32.5439C66.7091 34.5656 65.7275 37.0354 65.7275 39.8728C65.7275 42.7102 66.6976 45.18 68.6264 47.1903C70.5438 49.2006 72.9063 50.223 75.6569 50.223C77.346 50.223 78.9438 49.798 80.3933 48.9479C81.8427 48.1093 83.0297 46.9491 83.9199 45.5132C84.3422 44.8009 84.1824 44.1002 83.4634 43.5948C83.2009 43.4339 82.9498 43.3535 82.7101 43.3535C82.4134 43.3535 81.9911 43.4684 81.6487 44.0543C81.021 45.0996 80.165 45.9497 79.1036 46.5585C78.0422 47.1674 76.8895 47.4775 75.6454 47.4775C73.7281 47.4775 72.0503 46.7768 70.6694 45.3983C69.3683 44.1002 68.6264 42.492 68.4438 40.6195H84.1367C84.5019 40.6195 84.8101 40.5046 85.0726 40.2749C85.3465 40.0337 85.4835 39.712 85.4835 39.3214V39.1262C85.2666 36.4151 84.2166 34.1062 82.3677 32.2682" fill="#63666F"/>
<path d="M97.0677 29.5457C94.9449 29.5457 93.1074 30.3153 91.5895 31.8202V30.9127C91.5895 30.5451 91.4639 30.2119 91.2243 29.9477C90.7335 29.4078 89.8433 29.4078 89.3297 29.9477C89.0672 30.2119 88.9302 30.5336 88.9302 30.9127V49.2006L88.9759 49.304C88.9873 49.4074 89.033 49.4763 89.0672 49.5338C89.2498 49.8784 89.5465 50.1196 89.9346 50.223H90.277C90.9389 50.2345 91.3955 49.8439 91.5666 49.1317V49.0858L91.5781 38.0578C91.6351 36.4381 92.1944 35.0941 93.3128 33.9683C94.4199 32.8425 95.7324 32.2912 97.3074 32.2912C98.8824 32.2912 100.183 32.8425 101.302 33.9913C102.409 35.1285 102.957 36.4611 102.957 38.0463V48.8675C102.957 49.2466 103.094 49.5797 103.356 49.8324C103.619 50.0967 103.938 50.2345 104.315 50.2345C104.692 50.2345 105.011 50.0967 105.262 49.8324C105.525 49.5682 105.662 49.2351 105.662 48.8675V38.0463C105.662 35.7259 104.829 33.7041 103.208 32.0499C101.576 30.3957 99.5215 29.5571 97.0905 29.5571" fill="#63666F"/>
<path d="M126.308 37.9315H112.395C112.795 36.3347 113.605 35.0022 114.804 33.9568C116.116 32.8196 117.657 32.2452 119.38 32.2452C121.103 32.2452 122.644 32.831 123.957 33.9798C125.155 35.0366 125.943 36.3577 126.308 37.9315ZM126.125 32.2797C124.265 30.4417 121.971 29.4997 119.3 29.4997C116.63 29.4997 114.29 30.5221 112.373 32.5439C110.455 34.5656 109.485 37.0354 109.485 39.8728C109.485 42.7102 110.455 45.18 112.384 47.1903C114.301 49.2006 116.675 50.223 119.414 50.223C121.103 50.223 122.701 49.798 124.151 48.9479C125.6 48.1093 126.787 46.9491 127.677 45.5132C128.1 44.8009 127.94 44.1002 127.221 43.5948C126.958 43.4339 126.707 43.3535 126.468 43.3535C126.171 43.3535 125.749 43.4684 125.406 44.0543C124.778 45.0996 123.923 45.9497 122.861 46.5585C121.8 47.1674 120.636 47.4775 119.403 47.4775C117.486 47.4775 115.808 46.7768 114.427 45.3983C113.126 44.1002 112.384 42.492 112.201 40.6195H127.894C128.259 40.6195 128.568 40.5046 128.83 40.2749C129.104 40.0337 129.241 39.712 129.241 39.3214V39.1262C129.013 36.4151 127.974 34.1062 126.114 32.2682" fill="#63666F"/>
<path d="M145.002 39.8039C143.53 38.9768 141.875 38.4139 140.049 38.1267H140.026C138.36 37.874 137.059 37.426 136.203 36.8287C135.541 36.3117 135.233 35.7259 135.233 35.0596C135.233 34.3933 135.632 33.75 136.408 33.1067C137.219 32.4519 138.36 32.1188 139.809 32.1188C140.346 32.1188 140.928 32.2222 141.521 32.4405C142.138 32.6587 142.606 32.8655 142.914 33.0608C143.245 33.2561 143.736 33.5892 144.409 34.0487C144.706 34.2325 145.037 34.3014 145.413 34.221C145.778 34.1406 146.075 33.9453 146.269 33.6352C146.452 33.3365 146.509 32.9919 146.44 32.6243C146.372 32.2567 146.178 31.958 145.87 31.7168C145.151 31.2573 144.569 30.9011 144.146 30.6714C143.713 30.4302 143.096 30.1774 142.275 29.9132C141.453 29.649 140.62 29.5112 139.809 29.5112C137.812 29.5112 136.123 29.9822 134.776 30.9356C133.27 32.0614 132.494 33.4858 132.494 35.163C132.494 36.8401 133.27 38.1727 134.776 39.0572C135.712 39.7465 137.196 40.2634 139.33 40.6655L139.467 40.7114C141.339 41.0216 142.708 41.5155 143.519 42.1818C144.295 42.8136 144.683 43.5143 144.694 44.307C144.694 45.0766 144.283 45.7544 143.37 46.3747C142.457 47.1214 141.179 47.512 139.57 47.512C137.961 47.512 136.112 46.7538 134.137 45.2834C133.84 45.0192 133.509 44.9043 133.121 44.9503C132.745 44.9847 132.437 45.1685 132.22 45.4557C131.706 46.0875 131.775 46.7538 132.402 47.3167C134.753 49.2351 137.276 50.223 139.889 50.246C141.807 50.246 143.553 49.6601 145.071 48.5229C146.623 47.3511 147.411 45.8578 147.411 44.1002C147.411 42.3426 146.612 40.8952 145.002 39.8269" fill="#63666F"/>
<path d="M151.428 23.3884C151.165 23.6526 151.028 23.9857 151.028 24.3533V25.2953C151.028 25.6973 151.154 26.042 151.416 26.3177C151.679 26.5934 152.01 26.7542 152.375 26.7542C152.74 26.7542 153.083 26.6048 153.357 26.3292C153.631 26.0535 153.768 25.7088 153.768 25.2953V24.3533C153.768 23.9742 153.619 23.6411 153.345 23.3769C152.797 22.8485 151.941 22.8599 151.428 23.3769" fill="#63666F"/>
<path d="M151.428 29.9017C151.165 30.166 151.028 30.4876 151.028 30.8667V48.856C151.028 49.2236 151.165 49.5682 151.428 49.8209C151.69 50.0851 152.01 50.223 152.375 50.223C152.74 50.223 153.071 50.0966 153.345 49.8324C153.619 49.5682 153.768 49.2351 153.768 48.856V30.8667C153.768 30.4876 153.631 30.166 153.368 29.9017C152.843 29.3733 151.941 29.3733 151.428 29.9017Z" fill="#63666F"/>
<path d="M174.071 39.7809C174.071 41.8946 173.386 43.7096 172.028 45.1915C170.659 46.6849 169.061 47.4086 167.144 47.4086C165.226 47.4086 163.617 46.6849 162.259 45.1915C160.901 43.7096 160.216 41.9061 160.216 39.8039C160.216 37.7017 160.901 35.8982 162.259 34.4393C163.628 32.9574 165.226 32.2452 167.144 32.2452C169.061 32.2452 170.67 32.9574 172.028 34.4163C173.375 35.8637 174.071 37.6787 174.071 39.7809ZM174.494 29.8903C174.22 30.1545 174.071 30.4876 174.071 30.8667V32.6817C173.329 31.8431 172.451 31.1539 171.458 30.6025C170.111 29.8673 168.65 29.4997 167.132 29.4997C164.496 29.4997 162.213 30.5221 160.341 32.5324C158.481 34.5427 157.534 36.9895 157.534 39.8039C157.534 42.6183 158.47 45.0652 160.319 47.0755C162.179 49.0858 164.473 50.1081 167.132 50.1081C168.684 50.1081 170.145 49.7405 171.481 49.0283C172.473 48.4884 173.341 47.7992 174.083 46.9491V48.2472C174.083 50.1885 173.398 51.8657 172.051 53.2212C170.704 54.5767 169.05 55.266 167.132 55.266C166.071 55.266 165.055 55.0362 164.119 54.5882C163.868 54.4389 163.628 54.37 163.4 54.37C163.081 54.37 162.624 54.5193 162.304 55.1856C162.099 55.5761 161.882 56.3343 162.887 57.035C164.347 57.6783 165.774 58 167.121 58C169.78 58 172.074 57.035 173.946 55.1396C175.817 53.2442 176.765 50.9237 176.765 48.2472V30.8667C176.765 30.4876 176.628 30.166 176.365 29.9018C175.852 29.3733 175.041 29.3733 174.494 29.9018" fill="#63666F"/>
<path d="M190.289 29.4997C188.098 29.4997 186.203 30.2808 184.628 31.8316V22.3201C184.628 21.941 184.48 21.6078 184.206 21.3436C183.658 20.8267 182.802 20.8267 182.289 21.3436C182.026 21.6078 181.889 21.941 181.889 22.3086V48.8445C181.889 49.7176 182.38 50.2115 183.236 50.2115H183.43C183.498 50.2115 183.59 50.2 183.692 50.1311C184.023 50.0162 184.263 49.8095 184.412 49.5338C184.56 49.2466 184.617 49.0972 184.617 48.9594V37.7247C184.617 36.1165 185.165 34.8299 186.295 33.8075C187.413 32.7851 188.817 32.2567 190.46 32.2567C192.104 32.2567 193.508 32.7736 194.626 33.8075C195.756 34.8414 196.304 36.1165 196.304 37.7247V48.833C196.304 49.2006 196.441 49.5453 196.703 49.798C196.966 50.0622 197.285 50.2 197.662 50.2C198.039 50.2 198.358 50.0737 198.621 49.8095C198.895 49.5453 199.043 49.2121 199.043 48.833V37.7247C199.043 35.3468 198.198 33.348 196.532 31.7972C194.877 30.2579 192.777 29.4767 190.278 29.4767" fill="#63666F"/>
<path d="M209.532 32.2337C209.874 32.2337 210.194 32.0958 210.467 31.8087C210.741 31.533 210.878 31.2113 210.878 30.8552C210.878 30.4991 210.741 30.1889 210.467 29.9017C210.194 29.626 209.874 29.4767 209.532 29.4767H207.397V22.4579C207.397 22.1018 207.249 21.7801 206.952 21.493C206.667 21.2287 206.336 21.0794 205.982 21.0794C205.628 21.0794 205.297 21.2173 205.035 21.493C204.761 21.7687 204.624 22.0903 204.624 22.4464V29.4652H202.57C201.657 29.4652 201.36 29.8903 201.269 30.2464C201.234 30.3842 201.211 30.6025 201.211 30.9126C201.211 31.2573 201.291 31.5559 201.44 31.7857C201.622 32.0729 201.988 32.2107 202.558 32.2107H204.613V46.3403C204.613 47.4545 204.978 48.3735 205.708 49.0972C206.427 49.8209 207.352 50.1885 208.436 50.1885C208.778 50.1885 209.098 50.0507 209.383 49.775C209.68 49.4993 209.828 49.1776 209.828 48.8215C209.828 48.4654 209.68 48.1438 209.395 47.8566C209.109 47.5694 208.767 47.4201 208.402 47.4201C208.23 47.4201 208.002 47.3052 207.74 47.0984C207.5 46.9031 207.386 46.6619 207.386 46.3517V32.2222H209.52L209.532 32.2337Z" fill="#63666F"/>
<path d="M215.626 23.687C215.74 23.687 215.843 23.6411 215.923 23.5607C216.014 23.4803 216.048 23.3654 216.048 23.2505C216.048 23.1356 216.003 23.0323 215.923 22.9518C215.843 22.8714 215.74 22.8255 215.626 22.8255H215.113V23.6985H215.626V23.687ZM216.459 24.5486V24.8128C216.585 24.8358 216.642 24.9047 216.642 25.0196C216.642 25.1459 216.573 25.2264 216.448 25.2608H216.391C216.128 25.2608 216.003 25.0196 216.003 24.5486C215.968 24.3533 215.832 24.227 215.592 24.1465H215.113V25.0655C215.113 25.1345 215.09 25.1919 215.044 25.2264C214.998 25.2723 214.941 25.2953 214.873 25.2953C214.724 25.2953 214.645 25.2149 214.645 25.0655V22.5728C214.645 22.4119 214.724 22.343 214.873 22.343H215.626C215.866 22.343 216.083 22.4349 216.254 22.6072C216.425 22.7795 216.505 23.0093 216.505 23.262C216.505 23.5147 216.402 23.7445 216.174 23.9398C216.368 24.0891 216.459 24.2844 216.459 24.5486ZM213.971 25.3642C214.393 25.8007 214.907 26.019 215.523 26.019C216.14 26.019 216.665 25.8007 217.076 25.3527C217.498 24.9162 217.703 24.3763 217.703 23.7675C217.703 23.1356 217.498 22.6072 217.076 22.1707C216.653 21.7342 216.14 21.5159 215.523 21.5159C214.907 21.5159 214.393 21.7342 213.971 22.1822C213.549 22.6302 213.343 23.1586 213.343 23.7675C213.343 24.3993 213.549 24.9277 213.971 25.3642ZM217.27 25.5595C216.79 26.0535 216.197 26.3062 215.512 26.3062C214.827 26.3062 214.245 26.0649 213.766 25.571C213.286 25.077 213.047 24.4912 213.047 23.7904C213.047 23.0782 213.286 22.4924 213.777 21.9984C214.257 21.5044 214.839 21.2517 215.535 21.2517C216.231 21.2517 216.802 21.4929 217.281 21.9869C217.76 22.4809 218 23.0667 218 23.7675C218 24.4797 217.76 25.0655 217.281 25.5595" fill="#63666F"/>
</g>
</g>
<defs>
<clipPath id="clip0_4218_10433">
<rect width="218" height="58" fill="white"/>
</clipPath>
</defs>
</svg>
