<svg width="170" height="51" viewBox="0 0 170 51" fill="none" xmlns="http://www.w3.org/2000/svg">
<path fill-rule="evenodd" clip-rule="evenodd" d="M39.1736 11.0195C41.0739 6.11979 40.5336 2.82224 34.8141 2.82224C27.2689 2.82224 24.1856 8.50446 23.1236 11.2338C22.0897 13.8793 20.711 19.0026 28.0048 19.0026C33.6777 18.7045 37.4037 15.5746 39.1736 11.0289V11.0195ZM15.625 0.390991C16.1449 0.414272 16.6642 0.441864 17.1857 0.469577C18.5421 0.541656 19.9139 0.614553 21.3538 0.614553C22.8859 0.614553 24.3464 0.537518 25.8243 0.459571C26.2693 0.436101 26.7158 0.412548 27.1664 0.390991L25.6853 4.21019C28.6661 1.64853 33.3796 -0.000244141 39.2015 -0.000244141C51.6931 -0.000244141 54.3386 5.02992 52.1961 10.5352C49.178 18.304 39.3971 21.8158 30.4546 21.8158C24.642 21.8158 21.922 20.344 20.4781 18.6952L15.1313 32.4443C14.6148 32.4223 14.0997 32.397 13.5847 32.3718L13.5835 32.3717L13.5823 32.3717L13.5811 32.3716L13.5798 32.3715C12.1363 32.3008 10.6935 32.23 9.22548 32.23C7.7572 32.23 6.2586 32.3008 4.75945 32.3716L4.75917 32.3716L4.75889 32.3716L4.75861 32.3716L4.75832 32.3716L4.75802 32.3716L4.75772 32.3717L4.75741 32.3717L4.7571 32.3717L4.75677 32.3717L4.75642 32.3717L4.75606 32.3717L4.7557 32.3717C4.22076 32.397 3.68575 32.4223 3.15203 32.4443L15.625 0.390991ZM90.8165 21.4246C90.4625 21.4069 90.1091 21.3883 89.7558 21.3697C88.2411 21.2899 86.7294 21.2103 85.1809 21.2103C83.7521 21.2103 82.2451 21.2833 80.7614 21.3552C80.262 21.3794 79.7653 21.4035 79.2751 21.4246L80.514 18.2574C75.5863 20.4278 72.0093 21.8158 65.9452 21.8158C61.5205 21.8158 57.2448 20.9961 55.3632 19.1237C53.6361 17.4867 54.5702 15.2094 55.3911 13.2085C55.5044 12.9323 55.6155 12.6614 55.7172 12.3982L60.384 0.391036C60.9463 0.415017 61.5062 0.443572 62.0661 0.472122C63.4633 0.543377 64.86 0.614599 66.2898 0.614599C67.8469 0.614599 69.4265 0.535771 71.0067 0.456912L71.0069 0.456899C71.4592 0.434332 71.9115 0.411761 72.3633 0.391036L67.715 12.361C67.3238 13.3577 66.7556 15.053 67.2679 15.9566C67.8734 17.298 69.5128 18.2108 72.5496 18.2108C80.1041 18.2108 81.5759 14.4382 82.6285 11.6996L87.0253 0.391036C87.5808 0.414844 88.1356 0.44316 88.6909 0.471503L88.691 0.471507C90.091 0.542967 91.4944 0.614599 92.9217 0.614599C94.4734 0.614599 96.059 0.53558 97.6433 0.456625C98.0943 0.434149 98.5452 0.411677 98.9952 0.391036L90.8165 21.4246ZM108.644 0.471463C108.089 0.443118 107.534 0.4148 106.978 0.390991L98.7997 21.4245C99.1908 21.4067 99.5814 21.3878 99.9716 21.3689C101.617 21.2894 103.254 21.2103 104.873 21.2103C106.494 21.2103 108.071 21.2895 109.656 21.3691L109.656 21.3692L109.657 21.3692L109.658 21.3693L109.658 21.3693L109.659 21.3693L109.66 21.3694L109.661 21.3694L109.661 21.3694L109.662 21.3695L109.663 21.3695L109.663 21.3695L109.665 21.3696C110.036 21.3882 110.407 21.4069 110.779 21.4245L113.825 13.5719C113.924 13.3163 114.027 13.0276 114.137 12.7189L114.138 12.7182C114.631 11.3395 115.266 9.56141 116.294 8.54172C118.063 6.66938 121.566 5.67266 125.385 5.67266C126.773 5.67266 128.627 5.84965 129.596 6.24088L130.508 5.89622C130.974 4.0332 132.017 2.03977 133.238 -0.000244141C124.733 -0.000244141 119.908 2.60799 116.862 5.76581L118.948 0.390991C118.498 0.411631 118.048 0.434101 117.597 0.456576L117.596 0.456581C116.012 0.535535 114.427 0.614553 112.875 0.614553C111.448 0.614553 110.044 0.542922 108.644 0.471463ZM157.299 8.84914C158.202 6.55762 159.46 1.95595 154.253 1.95595C147.909 1.95595 145.524 6.5483 144.462 8.84914H157.299ZM143.652 10.9357C141.658 15.3977 143.382 19.0026 152.576 19.0026C156.134 19.0026 160.363 18.1829 163.484 17.0558L164.369 17.447L161.518 19.8689C157.578 21.0892 152.604 21.8251 148.347 21.8251C133.946 21.8251 128.263 17.4936 131.002 10.4234C133.359 4.34994 142.339 0.00909428 154.914 0.00909428C168.542 0.00909428 171.821 4.74117 168.458 10.9357H143.652ZM7.17622 40.213C8.75048 40.213 8.36856 41.8432 8.09842 42.6536H4.24196C4.55868 41.8339 5.27594 40.213 7.17622 40.213ZM6.68252 46.2399C3.92525 46.2399 3.39429 44.9637 3.99977 43.3895H11.4519C12.4672 41.1911 11.4798 39.5237 7.38116 39.5237C3.59922 39.5237 0.907151 41.0514 0.199203 43.2032C-0.620527 45.6996 1.08414 47.2366 5.41567 47.2366C6.69184 47.2366 8.19157 46.9758 9.37459 46.538L10.2316 45.681L9.96144 45.5506C9.02062 45.9418 7.75376 46.2399 6.68252 46.2399ZM14.9265 39.6634C15.0155 39.6694 15.1045 39.6755 15.1937 39.6817L15.1938 39.6817C15.6645 39.7144 16.1393 39.7473 16.6404 39.7473C17.1299 39.7473 17.6005 39.7159 18.0781 39.684L18.0789 39.6839L18.08 39.6839C18.1835 39.677 18.2873 39.6701 18.3917 39.6634L18.0191 40.7999C19.3046 40.0733 20.8415 39.5237 22.4531 39.5237C25.7413 39.5237 26.1605 40.7626 25.555 42.607L24.0739 47.0969C23.9782 47.0908 23.8825 47.0845 23.7868 47.0782C23.2952 47.0457 22.8015 47.0131 22.2947 47.0131C21.7954 47.0131 21.2962 47.0447 20.7917 47.0767L20.7915 47.0767L20.7913 47.0767L20.791 47.0768L20.7909 47.0768L20.7907 47.0768C20.6837 47.0836 20.5765 47.0904 20.4689 47.0969L21.7358 43.2777C22.2016 41.8525 22.2388 40.8092 20.4131 40.8092C18.1467 40.8092 17.5567 42.5967 17.2393 43.5582L17.2366 43.5665L16.0722 47.0969C15.9765 47.0908 15.8809 47.0845 15.7851 47.0782C15.2935 47.0457 14.7998 47.0131 14.293 47.0131C13.7938 47.0131 13.2945 47.0447 12.79 47.0767L12.7899 47.0767C12.6826 47.0835 12.5751 47.0904 12.4673 47.0969L14.9171 39.6541L14.9265 39.6634ZM38.1861 41.8152H38.8102L38.8196 41.8059L40.3286 40.213C39.2574 39.7379 37.562 39.5237 36.0716 39.5237C31.9823 39.5237 28.7033 41.07 27.9022 43.5106C27.1105 45.9139 29.4579 47.2459 33.5006 47.2459C34.4415 47.2459 36.3604 47.041 37.2174 46.6591L38.1489 45.7369L37.7763 45.5226C37.0031 45.9791 35.7921 46.2492 34.8234 46.2492C31.9823 46.2492 31.2464 45.0755 31.8519 43.2218C32.2338 42.0947 33.6031 40.2223 36.053 40.2223C37.59 40.2223 38.2793 40.9769 38.1861 41.8152ZM47.5947 43.0822C47.3604 43.1408 47.0699 43.1953 46.7544 43.2545L46.7543 43.2545C46.1166 43.3742 45.3766 43.513 44.7908 43.7436C44.0084 44.0696 43.6917 44.5261 43.5333 45.0198C43.347 45.588 43.4495 46.2494 44.5673 46.2494C46.1602 46.2494 46.7936 45.3458 47.101 44.5726L47.5947 43.0822ZM50.3147 45.7556C50.1284 46.3239 50.352 46.5102 51.4046 46.4822L51.2835 46.8269C50.6035 46.9946 49.5322 47.2461 48.8057 47.2461C47.5761 47.2461 46.7843 46.7989 46.5887 46.1189C45.6758 46.8269 44.2413 47.2461 42.8813 47.2461C40.7388 47.2461 39.3788 46.5474 39.8166 45.2154C40.301 43.7529 41.9497 43.3244 45.3591 42.868L45.398 42.8627C46.075 42.7713 46.7683 42.6776 47.3898 42.4674C47.7624 42.2997 47.9021 42.0948 47.9766 41.8712C48.2188 41.1353 47.1476 40.5206 45.9459 40.5206C44.2785 40.5206 42.7043 41.1912 42.4528 41.4707H42.2665L42.2292 40.5485C43.6824 39.8685 45.7503 39.5145 47.3898 39.5145C49.5788 39.5145 52.1777 40.0362 51.6654 41.5638L50.2868 45.737L50.3147 45.7556ZM61.2876 40.5204C63.0109 40.5204 63.1693 41.6941 62.6011 43.4267L62.5917 43.4174C62.0608 45.0289 60.943 46.1281 59.2383 46.2399C57.0492 46.2399 57.4591 44.4328 57.7758 43.4919C58.0925 42.5325 59.0147 40.5204 61.2876 40.5204ZM55.7673 39.6715C55.682 39.6656 55.597 39.6598 55.5122 39.6541L55.5216 39.6634L51.7769 50.9999C51.9529 50.9919 52.1297 50.9824 52.3064 50.9729L52.3069 50.9728L52.3074 50.9728C52.7475 50.9491 53.1868 50.9254 53.612 50.9254C54.2081 50.9254 54.7949 50.9627 55.3817 50.9999L55.3818 50.9999L56.984 46.1374C57.4218 46.715 58.2323 47.2459 59.9835 47.2459C62.6663 47.2459 65.6098 45.9977 66.5134 43.2497C67.1561 41.3029 66.3644 39.5237 62.6104 39.5237C60.8591 39.5237 59.4432 40.1012 58.5397 41.0048L58.9868 39.6541C58.8818 39.6608 58.7773 39.6677 58.6732 39.6747H58.6732H58.6731H58.6731H58.673H58.673H58.6729H58.6729H58.6728H58.6728H58.6727C58.1953 39.7066 57.7248 39.7379 57.2355 39.7379C56.7299 39.7379 56.2443 39.7044 55.7674 39.6715L55.7673 39.6715ZM68.6002 45.1594C68.8237 45.9232 69.7366 46.4635 71.1432 46.4635C72.0561 46.4635 73.2857 46.0723 73.4626 45.532C73.6639 44.9203 72.6665 44.6681 71.5165 44.3772C69.9519 43.9816 68.1048 43.5145 68.6095 41.9736C69.1311 40.4087 71.5251 39.533 73.9005 39.533C75.2046 39.533 76.5553 39.7845 77.4402 40.2596C77.049 40.7161 76.7043 41.1539 76.369 41.601H75.6424C75.6517 40.9396 74.7668 40.3155 73.5931 40.3155C72.6522 40.3155 71.5717 40.5763 71.3667 41.2004C71.1597 41.8254 72.1614 42.0556 73.3252 42.3231C74.9369 42.6936 76.8594 43.1355 76.3131 44.7961C75.838 46.2213 73.6303 47.2553 70.4725 47.2553C69.1963 47.2553 68.0133 47.0503 67.0818 46.6218C67.4078 46.1375 67.6873 45.6531 67.9574 45.1687H68.6002V45.1594ZM88.6167 47.0718C88.8061 47.0843 88.9958 47.0968 89.1866 47.1062H89.2052L91.6551 39.6634L91.5193 39.6718L91.3412 39.683L91.341 39.683C90.8314 39.7152 90.3239 39.7473 89.8293 39.7473C89.4334 39.7473 89.0416 39.7226 88.6485 39.6979H88.6484H88.6483H88.6483H88.6482H88.6481H88.6481H88.648H88.6479L88.6477 39.6978C88.4491 39.6853 88.2501 39.6728 88.0501 39.6634L86.7274 43.6689C86.4107 44.6377 85.9728 45.9698 83.7 45.9698C82.7778 45.9698 82.2841 45.6437 82.1071 45.1687C81.958 44.8426 82.135 44.2465 82.2468 43.8925L83.6441 39.6541C83.5394 39.6605 83.4348 39.6671 83.3302 39.6737L83.33 39.6737C82.8204 39.7059 82.3129 39.738 81.8183 39.738C81.4195 39.738 81.0249 39.713 80.6317 39.688L80.6315 39.688C80.4369 39.6757 80.2427 39.6634 80.0484 39.6541L78.6419 43.9018C78.6119 43.994 78.5792 44.0888 78.546 44.1853C78.3005 44.8975 78.0225 45.704 78.5394 46.2865C79.0983 46.9385 80.3931 47.2366 81.7158 47.2366C83.5416 47.2366 84.6128 46.7429 86.0939 45.9791L85.7213 47.1062C85.8181 47.1001 85.9148 47.0937 86.0115 47.0873C86.5019 47.0549 86.9933 47.0224 87.4912 47.0224C87.8686 47.0224 88.2419 47.047 88.6166 47.0718L88.6167 47.0718ZM96.1727 47.1063L96.1635 47.1058L100.011 35.4437C99.8315 35.4519 99.6532 35.4616 99.4755 35.4713L99.4752 35.4713H99.4751H99.475H99.4749H99.4748H99.4748H99.4747C99.0425 35.4949 98.6136 35.5183 98.1848 35.5183C97.7516 35.5183 97.3327 35.4944 96.9145 35.4706C96.7482 35.4612 96.5819 35.4517 96.4149 35.4437L92.5677 47.1063C92.6656 47.1003 92.7638 47.0942 92.862 47.088L92.8633 47.0879L92.8645 47.0878L92.8658 47.0877L92.867 47.0877L92.8689 47.0875L92.869 47.0875C93.3853 47.0551 93.9039 47.0224 94.4028 47.0224C94.7976 47.0224 95.1841 47.0469 95.5733 47.0716L95.5739 47.0716C95.7693 47.084 95.9654 47.0965 96.1635 47.1058L96.1634 47.1063H96.1727ZM106.174 43.2543C106.49 43.1952 106.782 43.1407 107.016 43.0822L106.522 44.5726C106.215 45.3458 105.581 46.2494 103.988 46.2494C102.87 46.2494 102.768 45.588 102.964 45.0198C103.122 44.5261 103.429 44.0696 104.212 43.7436C104.792 43.5129 105.534 43.374 106.174 43.2543ZM110.816 46.4822C109.764 46.5102 109.54 46.3239 109.726 45.7556V45.737L111.105 41.5638C111.608 40.0362 109.018 39.5145 106.829 39.5145C105.181 39.5145 103.113 39.8685 101.669 40.5485L101.706 41.4707H101.883C102.125 41.1912 103.709 40.5206 105.376 40.5206C106.568 40.5206 107.649 41.1353 107.407 41.8712C107.332 42.0948 107.183 42.2997 106.811 42.4674C106.18 42.6776 105.487 42.7712 104.81 42.8627L104.771 42.868C101.371 43.3244 99.7126 43.7529 99.2282 45.2154C98.7904 46.5474 100.16 47.2461 102.293 47.2461C103.653 47.2461 105.087 46.8269 106 46.1189C106.196 46.7989 106.988 47.2461 108.208 47.2461C108.944 47.2461 110.006 46.9946 110.695 46.8269L110.816 46.4822ZM117.504 45.0198C117.16 46.0724 117.076 46.6499 119.516 46.296L119.321 46.8921C118.287 47.1064 117.299 47.2461 116.489 47.2461C113.778 47.2461 113.527 46.1842 113.993 44.759L115.353 40.651H113.573C113.769 40.297 113.862 40.0176 113.899 39.6636H115.679L116.247 37.931C117.514 37.6515 118.799 37.3348 120.159 36.9808L119.274 39.6636H121.491C121.296 40.0176 121.203 40.297 121.165 40.651H118.948L117.504 45.0198ZM128.776 36.8597C128.99 36.2076 128.217 35.6487 127.09 35.6487C125.963 35.6487 124.863 36.2169 124.649 36.8597C124.444 37.5024 125.171 38.0706 126.289 38.0706C127.406 38.0706 128.561 37.5211 128.776 36.8597ZM124.29 39.6827L124.202 39.6768L123.997 39.6635H123.988L121.529 47.1063L121.691 47.0963L121.851 47.0861L121.852 47.0861C122.356 47.0541 122.855 47.0225 123.354 47.0225C123.851 47.0225 124.33 47.0539 124.815 47.0857L124.815 47.0857C124.921 47.0927 125.027 47.0996 125.133 47.1063L127.593 39.6635C127.496 39.6694 127.399 39.6755 127.301 39.6816L127.301 39.6816H127.301H127.301H127.301C126.779 39.7143 126.252 39.7474 125.758 39.7474C125.269 39.7474 124.78 39.715 124.29 39.6827ZM132.856 43.5013C132.539 44.4887 132.055 46.5567 134.328 46.5567C136.349 46.5194 137.532 44.6564 138.091 42.9703C138.585 41.4706 138.342 40.2224 136.601 40.2224C134.486 40.2224 133.452 41.6942 132.856 43.5106V43.5013ZM128.981 43.5572C129.782 41.1539 132.688 39.5424 136.675 39.5424C140.662 39.5424 142.618 40.949 141.873 43.2218C141.109 45.5599 138.193 47.2646 134.104 47.2646C130.238 47.2646 128.245 45.8301 128.981 43.5572ZM145.353 39.6644L145.338 39.6634L145.357 39.6541L145.353 39.6644ZM145.353 39.6644C145.437 39.6701 145.521 39.6759 145.605 39.6817L145.605 39.6817L145.605 39.6817C146.076 39.7144 146.551 39.7473 147.052 39.7473C147.541 39.7473 148.012 39.7159 148.49 39.684C148.594 39.6771 148.698 39.6701 148.803 39.6634L148.431 40.7999C149.716 40.0733 151.253 39.5237 152.874 39.5237C156.162 39.5237 156.581 40.7626 155.976 42.607L154.495 47.0969L154.322 47.0857L154.204 47.078C153.714 47.0455 153.223 47.0131 152.725 47.0131C152.22 47.0131 151.696 47.0464 151.179 47.0793L151.176 47.0795C151.083 47.0854 150.991 47.0912 150.899 47.0969L152.157 43.2777C152.632 41.8525 152.66 40.8092 150.834 40.8092C148.57 40.8092 147.974 42.607 147.657 43.5665L146.493 47.0969C146.382 47.09 146.273 47.0828 146.164 47.0756C145.685 47.044 145.216 47.0131 144.723 47.0131C144.214 47.0131 143.699 47.046 143.187 47.0786C143.091 47.0848 142.994 47.091 142.897 47.0969L145.353 39.6644ZM158.435 45.1594C158.659 45.9232 159.572 46.4635 160.978 46.4635C161.891 46.4635 163.121 46.0723 163.288 45.532C163.49 44.9203 162.492 44.6681 161.342 44.3772C159.778 43.9816 157.93 43.5145 158.435 41.9736C158.947 40.4087 161.36 39.533 163.726 39.533C165.04 39.533 166.381 39.7845 167.266 40.2596C166.875 40.7161 166.53 41.1539 166.195 41.601H165.468C165.468 40.9396 164.592 40.3155 163.419 40.3155C162.478 40.3155 161.407 40.5763 161.192 41.2004C160.981 41.8258 161.982 42.0559 163.146 42.3236C164.756 42.694 166.679 43.1362 166.139 44.7961C165.673 46.2213 163.447 47.2553 160.289 47.2553C159.003 47.2553 157.83 47.0503 156.898 46.6218C157.215 46.1375 157.504 45.6531 157.774 45.1687H158.416L158.435 45.1594ZM162.795 30.3019C163.121 29.8827 163.503 29.566 163.959 29.3518L163.968 29.3424C164.406 29.1282 164.9 29.0164 165.431 29.0164C165.803 29.0164 166.167 29.0816 166.521 29.1934C166.875 29.3145 167.191 29.4915 167.489 29.715C167.899 30.0318 168.216 30.423 168.44 30.8888C168.663 31.3452 168.775 31.8389 168.775 32.3699C168.775 32.817 168.691 33.2455 168.523 33.6553C168.356 34.0559 168.114 34.4099 167.797 34.7173C167.471 35.034 167.098 35.2855 166.688 35.4532C166.288 35.6208 165.869 35.7047 165.431 35.7047C164.993 35.7047 164.564 35.6208 164.155 35.4532C163.745 35.2762 163.381 35.034 163.055 34.708C162.748 34.3912 162.497 34.0373 162.329 33.6367C162.161 33.2268 162.077 32.8077 162.077 32.3699C162.077 31.9973 162.143 31.6433 162.264 31.2893C162.385 30.9353 162.562 30.6 162.795 30.3019ZM167.108 31.4477C167.108 31.7178 167.033 31.9414 166.875 32.1184C166.735 32.3047 166.511 32.4164 166.232 32.463L167.089 34.1956H166.278L165.505 32.5841H164.797V34.1956H164.08V30.4044H165.515C166.036 30.4044 166.446 30.4882 166.707 30.6652C166.977 30.8329 167.108 31.103 167.108 31.4477ZM165.394 30.8608H164.807V30.8701V32.1277H165.412C165.766 32.1277 166.008 32.0811 166.157 31.9786C166.297 31.8855 166.381 31.7364 166.381 31.5222C166.381 31.2986 166.297 31.1309 166.139 31.0192C165.99 30.9074 165.748 30.8608 165.394 30.8608ZM167.499 34.4099C167.769 34.1397 167.974 33.8323 168.114 33.4877L168.104 33.4784C168.253 33.1244 168.328 32.7611 168.328 32.3792C168.328 31.9786 168.253 31.5967 168.114 31.2427C167.974 30.8888 167.778 30.572 167.499 30.2926C167.229 30.0224 166.912 29.8175 166.558 29.6685C166.204 29.5194 165.831 29.4449 165.44 29.4449C165.049 29.4449 164.667 29.5194 164.322 29.6592C163.978 29.7989 163.67 30.0038 163.409 30.274C163.13 30.5534 162.906 30.8701 162.767 31.2334C162.608 31.5967 162.534 31.9786 162.534 32.3605C162.534 32.7425 162.608 33.1058 162.757 33.4597C162.906 33.8137 163.111 34.1304 163.381 34.4006C163.652 34.6707 163.978 34.8849 164.322 35.0433C164.676 35.1923 165.04 35.2669 165.412 35.2669C165.803 35.2669 166.185 35.1923 166.539 35.0433C166.893 34.8943 167.219 34.68 167.499 34.4099Z" fill="#0e2055"/>
</svg>
